<svg width="534" height="549" viewBox="0 0 534 549" fill="none" xmlns="http://www.w3.org/2000/svg">
<path d="M299 66L234 69L193 98L167 158L238 116L179 371L150 392L190 463L272 112L300 115L261 278L399 365L346 243L309 195L326 141L422 136L380 98H336L299 66Z" fill="black"/>
<path d="M254 307L200 541L259 549L297 386L423 465L397 481L314 428L288 549L353 535L421 500L474 533L420 412L254 307Z" fill="black"/>
<path d="M266 0L194 11L125 42L94 65L64 95L41 126L21 163L8 200L0 243V311L8 352L21 389L38 422L63 457L84 438L48 378L33 333L28 300L31 233L50 170L86 114L124 78L184 44L223 33L266 29V0Z" fill="black"/>
<path d="M463 91L443 111L464 138L487 181L499 219L505 258L504 302L495 347L482 383L459 420L482 439L500 412L511 390L522 359L533 304L534 255L526 206L514 170L493 129L477 106L463 91Z" fill="black"/>
<path d="M197 172L128 216L109 286L112 298L122 321L146 386L184 222L197 172Z" fill="black"/>
<path d="M106 459L104 461V462L86 480L90 484H91L96 489H97L102 494H103L107 498H108L111 501H112V500L113 499V498L116 495V494L119 491V490L121 488V487L125 483V482L127 480H128V479H127L125 477H124L120 473H119L108 462V461L106 459Z" fill="black"/>
</svg>
